<svg width="24" height="24" viewBox="0 0 24 24" fill="none" xmlns="http://www.w3.org/2000/svg">
<path d="M20.97 19.33C20.97 19.69 20.89 20.06 20.72 20.42C20.55 20.78 20.33 21.12 20.04 21.44C19.55 21.98 19.01 22.37 18.4 22.62C17.8 22.87 17.15 23 16.45 23C15.43 23 14.34 22.76 13.19 22.27C12.04 21.78 10.89 21.12 9.75 20.29C8.6 19.45 7.51 18.52 6.47 17.49C5.44 16.45 4.51 15.36 3.68 14.22C2.86 13.08 2.2 11.94 1.72 10.81C1.24 9.67 1 8.58 1 7.54C1 6.86 1.12 6.21 1.36 5.61C1.6 5 1.98 4.44 2.51 3.94C3.15 3.31 3.85 3 4.59 3C4.87 3 5.15 3.06 5.4 3.18C5.66 3.3 5.89 3.48 6.07 3.74L8.39 7.01C8.57 7.26 8.7 7.49 8.79 7.71C8.88 7.92 8.93 8.13 8.93 8.32C8.93 8.56 8.86 8.8 8.72 9.03C8.59 9.26 8.4 9.5 8.16 9.74L7.4 10.53C7.29 10.64 7.24 10.77 7.24 10.93C7.24 11.01 7.25 11.08 7.27 11.16C7.3 11.24 7.33 11.3 7.35 11.36C7.53 11.69 7.84 12.12 8.28 12.64C8.73 13.16 9.21 13.69 9.73 14.22C10.27 14.75 10.79 15.24 11.32 15.69C11.84 16.13 12.27 16.43 12.61 16.61C12.66 16.63 12.72 16.66 12.79 16.69C12.87 16.72 12.95 16.73 13.04 16.73C13.21 16.73 13.34 16.67 13.45 16.56L14.21 15.81C14.46 15.56 14.7 15.37 14.93 15.25C15.16 15.11 15.39 15.04 15.64 15.04C15.83 15.04 16.03 15.08 16.25 15.17C16.47 15.26 16.7 15.39 16.95 15.56L20.26 17.91C20.52 18.09 20.7 18.3 20.81 18.55C20.91 18.8 20.97 19.05 20.97 19.33Z" stroke="white" stroke-width="1.2" stroke-miterlimit="10"/>
<path d="M17.5 10C17.5 9.4 17.03 8.48 16.33 7.73C15.69 7.04 14.84 6.5 14 6.5" stroke="white" stroke-width="1.2" stroke-linecap="round" stroke-linejoin="round"/>
<path d="M21 10C21 6.13 17.87 3 14 3" stroke="white" stroke-width="1.2" stroke-linecap="round" stroke-linejoin="round"/>
</svg>
