<svg width="24" height="24" viewBox="0 0 24 24" fill="none" xmlns="http://www.w3.org/2000/svg">
<path d="M12 2.00009C6.49 2.00009 2 6.49009 2 12.0001C2 17.5101 6.49 22.0001 12 22.0001C17.51 22.0001 22 17.5101 22 12.0001C22 6.49009 17.51 2.00009 12 2.00009ZM16.35 15.5701C16.21 15.8101 15.96 15.9401 15.7 15.9401C15.57 15.9401 15.44 15.9101 15.32 15.8301L12.22 13.9801C11.45 13.5201 10.88 12.5101 10.88 11.6201V7.52009C10.88 7.11009 11.22 6.77009 11.63 6.77009C12.04 6.77009 12.38 7.11009 12.38 7.52009V11.6201C12.38 11.9801 12.68 12.5101 12.99 12.6901L16.09 14.5401C16.45 14.7501 16.57 15.2101 16.35 15.5701Z" fill="white"/>
</svg>
