<svg width="15" height="15" viewBox="0 0 24 24" fill="none" xmlns="http://www.w3.org/2000/svg">
<mask id="path-1-inside-1_4648_1541" fill="white">
<path d="M14 0C16.7614 0 19 2.23858 19 5V17C19 20.866 15.866 24 12 24C8.13401 24 5 20.866 5 17V9H7V17C7 19.7614 9.23858 22 12 22C14.7614 22 17 19.7614 17 17V5C17 3.34315 15.6569 2 14 2C12.3431 2 11 3.34315 11 5V17C11 17.5523 11.4477 18 12 18C12.5523 18 13 17.5523 13 17V6H15V17C15 18.6569 13.6569 20 12 20C10.3431 20 9 18.6569 9 17V5C9 2.23858 11.2386 0 14 0Z"/>
</mask>
<path d="M14 0C16.7614 0 19 2.23858 19 5V17C19 20.866 15.866 24 12 24C8.13401 24 5 20.866 5 17V9H7V17C7 19.7614 9.23858 22 12 22C14.7614 22 17 19.7614 17 17V5C17 3.34315 15.6569 2 14 2C12.3431 2 11 3.34315 11 5V17C11 17.5523 11.4477 18 12 18C12.5523 18 13 17.5523 13 17V6H15V17C15 18.6569 13.6569 20 12 20C10.3431 20 9 18.6569 9 17V5C9 2.23858 11.2386 0 14 0Z" fill="#DEE8F9"/>
<path d="M5 9V7H3V9H5ZM7 9H9V7H7V9ZM13 6V4H11V6H13ZM15 6H17V4H15V6ZM14 2C15.6569 2 17 3.34315 17 5H21C21 1.13401 17.866 -2 14 -2V2ZM17 5V17H21V5H17ZM17 17C17 19.7614 14.7614 22 12 22V26C16.9706 26 21 21.9706 21 17H17ZM12 22C9.23858 22 7 19.7614 7 17H3C3 21.9706 7.02944 26 12 26V22ZM7 17V9H3V17H7ZM5 11H7V7H5V11ZM5 9V17H9V9H5ZM5 17C5 20.866 8.13401 24 12 24V20C10.3431 20 9 18.6569 9 17H5ZM12 24C15.866 24 19 20.866 19 17H15C15 18.6569 13.6569 20 12 20V24ZM19 17V5H15V17H19ZM19 5C19 2.23858 16.7614 0 14 0V4C14.5523 4 15 4.44772 15 5H19ZM14 0C11.2386 0 9 2.23858 9 5H13C13 4.44772 13.4477 4 14 4V0ZM9 5V17H13V5H9ZM9 17C9 18.6569 10.3431 20 12 20V16C12.5523 16 13 16.4477 13 17H9ZM12 20C13.6569 20 15 18.6569 15 17H11C11 16.4477 11.4477 16 12 16V20ZM15 17V6H11V17H15ZM13 8H15V4H13V8ZM13 6V17H17V6H13ZM13 17C13 17.5523 12.5523 18 12 18V22C14.7614 22 17 19.7614 17 17H13ZM12 18C11.4477 18 11 17.5523 11 17H7C7 19.7614 9.23858 22 12 22V18ZM11 17V5H7V17H11ZM11 5C11 3.34315 12.3431 2 14 2V-2C10.134 -2 7 1.13401 7 5H11Z" fill="#DEE8F9" fill-opacity="0.85" mask="url(#path-1-inside-1_4648_1541)"/>
</svg>
