<svg width="13" height="17" viewBox="0 0 13 17" fill="none" xmlns="http://www.w3.org/2000/svg">
<path d="M7.88082 1.34741H2.8039C2.46728 1.34741 2.14444 1.49905 1.90642 1.76895C1.66839 2.03886 1.53467 2.40494 1.53467 2.78665V14.3005C1.53467 14.6822 1.66839 15.0483 1.90642 15.3182C2.14444 15.5881 2.46728 15.7398 2.8039 15.7398H10.4193C10.7559 15.7398 11.0787 15.5881 11.3168 15.3182C11.5548 15.0483 11.6885 14.6822 11.6885 14.3005V5.66512L7.88082 1.34741Z" stroke="#DEE8F9" stroke-opacity="0.85" stroke-width="2" stroke-linecap="round" stroke-linejoin="round"/>
<path d="M7.88086 1.34741V5.66512H11.6886" stroke="#DEE8F9" stroke-opacity="0.85" stroke-width="2" stroke-linecap="round" stroke-linejoin="round"/>
<path d="M9.15017 9.26318H4.07324" stroke="#DEE8F9" stroke-opacity="0.85" stroke-width="2" stroke-linecap="round" stroke-linejoin="round"/>
<path d="M9.15017 12.1416H4.07324" stroke="#DEE8F9" stroke-opacity="0.85" stroke-width="2" stroke-linecap="round" stroke-linejoin="round"/>
<path d="M5.34247 6.38477H4.70786H4.07324" stroke="#DEE8F9" stroke-opacity="0.85" stroke-width="2" stroke-linecap="round" stroke-linejoin="round"/>
</svg>
