<svg width="17" height="19" viewBox="0 0 17 19" fill="none" xmlns="http://www.w3.org/2000/svg">
<path d="M13.0537 3.06299H4.16913C3.46816 3.06299 2.8999 3.70736 2.8999 4.50222V14.5769C2.8999 15.3717 3.46816 16.0161 4.16913 16.0161H13.0537C13.7547 16.0161 14.323 15.3717 14.323 14.5769V4.50222C14.323 3.70736 13.7547 3.06299 13.0537 3.06299Z" stroke="#DEE8F9" stroke-opacity="0.85" stroke-width="2" stroke-linecap="round" stroke-linejoin="round"/>
<path d="M6.3904 8.10026C6.91613 8.10026 7.34232 7.61698 7.34232 7.02083C7.34232 6.42468 6.91613 5.94141 6.3904 5.94141C5.86467 5.94141 5.43848 6.42468 5.43848 7.02083C5.43848 7.61698 5.86467 8.10026 6.3904 8.10026Z" stroke="#DEE8F9" stroke-opacity="0.85" stroke-width="2" stroke-linecap="round" stroke-linejoin="round"/>
<path d="M14.3228 11.6984L11.1497 8.10034L4.16895 16.0161" stroke="#DEE8F9" stroke-opacity="0.85" stroke-width="2" stroke-linecap="round" stroke-linejoin="round"/>
</svg>
