<svg width="15" height="16" viewBox="0 0 15 16" fill="none" xmlns="http://www.w3.org/2000/svg">
<path fill-rule="evenodd" clip-rule="evenodd" d="M11.6667 2.52632V1.68421C11.6667 0.754047 10.9205 0 10 0H5C4.07953 0 3.33333 0.754047 3.33333 1.68421V2.52632H0.833333C0.373096 2.52632 0 2.90334 0 3.36842C0 3.8335 0.373096 4.21053 0.833333 4.21053H1.66667V13.4737C1.66667 14.8689 2.78596 16 4.16667 16H10.8333C12.214 16 13.3333 14.8689 13.3333 13.4737V4.21053H14.1667C14.6269 4.21053 15 3.8335 15 3.36842C15 2.90334 14.6269 2.52632 14.1667 2.52632H11.6667ZM10 1.68421H5V2.52632H10V1.68421ZM11.6667 4.21053H3.33333V13.4737C3.33333 13.9388 3.70643 14.3158 4.16667 14.3158H10.8333C11.2936 14.3158 11.6667 13.9388 11.6667 13.4737V4.21053Z" fill="#DEE8F9" fill-opacity="0.85"/>
<path d="M5 5.89474H6.66667V12.6316H5V5.89474Z" fill="#DEE8F9" fill-opacity="0.85"/>
<path d="M8.33333 5.89474H10V12.6316H8.33333V5.89474Z" fill="#DEE8F9" fill-opacity="0.85"/>
</svg>
