<svg width="18" height="19" viewBox="0 0 18 19" fill="none" xmlns="http://www.w3.org/2000/svg">
<path fill-rule="evenodd" clip-rule="evenodd" d="M14 3V2C14 0.895431 13.1046 0 12 0H6C4.89543 0 4 0.89543 4 2V3H1C0.447716 3 0 3.44772 0 4C0 4.55228 0.447716 5 1 5H2V16C2 17.6569 3.34315 19 5 19H13C14.6569 19 16 17.6569 16 16V5H17C17.5523 5 18 4.55228 18 4C18 3.44772 17.5523 3 17 3H14ZM12 2H6V3H12V2ZM14 5H4V16C4 16.5523 4.44772 17 5 17H13C13.5523 17 14 16.5523 14 16V5Z" fill="#DEE8F9" fill-opacity="0.85"/>
<path d="M6 7H8V15H6V7Z" fill="#DEE8F9" fill-opacity="0.85"/>
<path d="M10 7H12V15H10V7Z" fill="#DEE8F9" fill-opacity="0.85"/>
</svg>
