<svg width="27" height="25" viewBox="0 0 27 25" fill="none" xmlns="http://www.w3.org/2000/svg">
<path d="M17.8318 17.5503L13.6114 12.7646L9.39111 17.5503" stroke="#1E304F" stroke-linecap="round" stroke-linejoin="round"/>
<path d="M13.6113 12.7646V23.5323" stroke="#1E304F" stroke-width="2.5" stroke-linecap="round" stroke-linejoin="round"/>
<path d="M22.4637 20.4097C23.4927 19.7735 24.3057 18.7669 24.7742 17.5486C25.2427 16.3304 25.3401 14.9699 25.051 13.682C24.7619 12.394 24.1027 11.2518 23.1776 10.4358C22.2525 9.6198 21.1141 9.17635 19.942 9.17548H18.6126C18.2933 7.77478 17.698 6.4744 16.8717 5.3721C16.0453 4.26981 15.0094 3.39428 13.8416 2.81134C12.6739 2.2284 11.4049 1.95322 10.1299 2.00649C8.85489 2.05976 7.60713 2.44009 6.48042 3.11889C5.3537 3.79768 4.37736 4.75728 3.62478 5.92555C2.8722 7.09381 2.36297 8.44033 2.13538 9.86388C1.90779 11.2874 1.96775 12.751 2.31077 14.1444C2.65378 15.5379 3.27092 16.8251 4.11579 17.9092" stroke="#1E304F" stroke-width="2.5" stroke-linecap="round" stroke-linejoin="round"/>
<path d="M17.8318 17.5503L13.6114 12.7646L9.39111 17.5503" stroke="#1E304F" stroke-width="2.5" stroke-linecap="round" stroke-linejoin="round"/>
</svg>
