<svg width="24" height="24" viewBox="0 0 24 24" fill="none" xmlns="http://www.w3.org/2000/svg">
<path d="M12 0C8.74 0 8.33 0 7.05 0.07C6.05536 0.0912115 5.07147 0.28055 4.14 0.63C3.34064 0.934688 2.61471 1.4049 2.0098 2.0098C1.4049 2.61471 0.934688 3.34064 0.63 4.14C0.28055 5.07147 0.0912115 6.05536 0.07 7.05C0 8.33 0 8.74 0 12C0 15.26 0 15.67 0.07 17C0.0900524 17.9948 0.279428 18.9788 0.63 19.91C0.934916 20.6951 1.40171 21.4072 2 22C2.60169 22.6088 3.32844 23.0797 4.13 23.38C5.06147 23.7294 6.04536 23.9188 7.04 23.94C8.33 24 8.74 24 12 24C15.26 24 15.67 24 16.95 23.93C17.9448 23.9099 18.9288 23.7206 19.86 23.37C20.663 23.0714 21.3927 22.6042 22 22C22.6088 21.3983 23.0797 20.6716 23.38 19.87C23.7216 18.9506 23.9075 17.9806 23.93 17C24 15.67 24 15.26 24 12C24 8.74 24 8.33 23.93 7.05C23.9099 6.05524 23.7206 5.07116 23.37 4.14C23.0653 3.34064 22.5951 2.61471 21.9902 2.0098C21.3853 1.4049 20.6594 0.934688 19.86 0.63C18.9446 0.284951 17.9779 0.0956656 17 0.07C15.67 0 15.26 0 12 0ZM12 2.16C15.2 2.16 15.59 2.16 16.85 2.23C17.612 2.24041 18.3664 2.3825 19.08 2.65C19.6023 2.83672 20.0745 3.14126 20.46 3.54C20.8587 3.92552 21.1633 4.39774 21.35 4.92C21.6213 5.6325 21.7635 6.38762 21.77 7.15C21.82 8.42 21.84 8.8 21.84 12C21.84 15.2 21.84 15.59 21.76 16.85C21.7496 17.612 21.6075 18.3664 21.34 19.08C21.146 19.601 20.8386 20.0724 20.44 20.46C20.0545 20.8587 19.5823 21.1633 19.06 21.35C18.3478 21.6223 17.5925 21.7646 16.83 21.77C15.56 21.82 15.18 21.84 11.97 21.84C8.76 21.84 8.38 21.84 7.11 21.76C6.34801 21.7496 5.59357 21.6075 4.88 21.34C4.35661 21.1507 3.88424 20.8426 3.5 20.44C3.0982 20.0551 2.79027 19.5829 2.6 19.06C2.3325 18.3464 2.19041 17.592 2.18 16.83C2.13 15.57 2.12 15.18 2.12 11.99C2.12 8.8 2.12 8.4 2.18 7.12C2.19041 6.35801 2.3325 5.60357 2.6 4.89C2.78797 4.36595 3.09622 3.8933 3.5 3.51C3.8833 3.10622 4.35595 2.79797 4.88 2.61C5.5914 2.34718 6.34176 2.20522 7.1 2.19C8.37 2.19 8.75 2.13 11.95 2.13L12 2.16ZM12 5.84C10.7817 5.84 9.59069 6.20128 8.57769 6.87815C7.56468 7.55502 6.77514 8.51708 6.3089 9.64267C5.84267 10.7683 5.72068 12.0068 5.95836 13.2018C6.19605 14.3967 6.78273 15.4943 7.64422 16.3558C8.50571 17.2173 9.60332 17.804 10.7982 18.0416C11.9932 18.2793 13.2317 18.1573 14.3573 17.6911C15.4829 17.2249 16.445 16.4353 17.1219 15.4223C17.7987 14.4093 18.16 13.2183 18.16 12C18.16 10.3663 17.511 8.79945 16.3558 7.64422C15.2006 6.489 13.6337 5.84 12 5.84ZM12 16C11.2089 16 10.4355 15.7654 9.77772 15.3259C9.11992 14.8864 8.60723 14.2616 8.30448 13.5307C8.00173 12.7998 7.92252 11.9956 8.07686 11.2196C8.2312 10.4437 8.61216 9.73098 9.17157 9.17157C9.73098 8.61216 10.4437 8.2312 11.2196 8.07686C11.9956 7.92252 12.7998 8.00173 13.5307 8.30448C14.2616 8.60723 14.8864 9.11992 15.3259 9.77772C15.7654 10.4355 16 11.2089 16 12C16 13.0609 15.5786 14.0783 14.8284 14.8284C14.0783 15.5786 13.0609 16 12 16ZM19.85 5.6C19.85 5.88481 19.7655 6.16321 19.6073 6.40002C19.4491 6.63683 19.2242 6.8214 18.9611 6.93039C18.6979 7.03938 18.4084 7.06789 18.1291 7.01233C17.8497 6.95677 17.5932 6.81962 17.3918 6.61823C17.1904 6.41685 17.0532 6.16026 16.9977 5.88093C16.9421 5.6016 16.9706 5.31206 17.0796 5.04894C17.1886 4.78581 17.3732 4.56091 17.61 4.40268C17.8468 4.24445 18.1252 4.16 18.41 4.16C18.7911 4.16262 19.1559 4.31517 19.4253 4.58466C19.6948 4.85415 19.8474 5.2189 19.85 5.6Z" fill="white"/>
</svg>
