<svg width="32" height="32" viewBox="0 0 32 32" fill="none" xmlns="http://www.w3.org/2000/svg">
<path fill-rule="evenodd" clip-rule="evenodd" d="M5.716 29.2178L2.27664 24.9331C1.44913 23.9023 1 22.6346 1 21.3299V5.81499C1 3.86064 2.56359 2.23897 4.58071 2.10125L20.5321 1.01218C21.691 0.933062 22.8428 1.24109 23.7948 1.8847L29.3992 5.67391C30.4025 6.35219 31 7.46099 31 8.64426V26.2832C31 28.1958 29.4626 29.7793 27.4876 29.9009L9.78333 30.9907C8.20733 31.0877 6.68399 30.4237 5.716 29.2178Z" fill="white"/>
<path d="M11.2481 13.5787V13.3756C11.2481 12.8607 11.6605 12.4337 12.192 12.3982L16.0634 12.1397L21.4171 20.0235V13.1041L20.0391 12.9204V12.824C20.0391 12.303 20.4609 11.8732 20.9991 11.8456L24.5216 11.6652V12.1721C24.5216 12.41 24.3447 12.6136 24.1022 12.6546L23.2545 12.798V24.0037L22.1906 24.3695C21.3019 24.6752 20.3124 24.348 19.8037 23.5803L14.6061 15.7372V23.223L16.2059 23.5291L16.1836 23.6775C16.1138 24.1423 15.7125 24.4939 15.227 24.5155L11.2481 24.6926C11.1956 24.1927 11.5702 23.7456 12.087 23.6913L12.6103 23.6363V13.6552L11.2481 13.5787Z" fill="black"/>
<path fill-rule="evenodd" clip-rule="evenodd" d="M20.6749 2.96678L4.72353 4.05585C3.76805 4.12109 3.0274 4.88925 3.0274 5.81499V21.3299C3.0274 22.1997 3.32682 23.0448 3.8785 23.7321L7.31786 28.0167C7.87394 28.7094 8.74905 29.0909 9.65441 29.0352L27.3587 27.9454C28.2661 27.8895 28.9725 27.1619 28.9725 26.2832V8.64426C28.9725 8.10059 28.6979 7.59115 28.237 7.27951L22.6325 3.49029C22.0614 3.10413 21.3703 2.91931 20.6749 2.96678ZM5.51453 6.057C5.29267 5.89274 5.39826 5.55055 5.67696 5.53056L20.7822 4.44711C21.2635 4.41259 21.7418 4.54512 22.131 4.82088L25.1617 6.96813C25.2768 7.04965 25.2228 7.22563 25.0804 7.23338L9.08393 8.10336C8.59983 8.12969 8.12199 7.98747 7.73707 7.7025L5.51453 6.057ZM8.33363 10.8307C8.33363 10.311 8.75347 9.88177 9.29033 9.85253L26.2031 8.93145C26.7263 8.90296 27.1668 9.30534 27.1668 9.81182V25.0853C27.1668 25.604 26.7484 26.0328 26.2126 26.0633L9.40694 27.0195C8.82466 27.0527 8.33363 26.6052 8.33363 26.0415V10.8307Z" fill="black"/>
</svg>
